<?xml version="1.0" encoding="UTF-8"?>
<svg id="Layer_2" data-name="Layer 2" xmlns="http://www.w3.org/2000/svg" viewBox="0 0 87.34 171.12">
  <path d="M74.21,165.48c-1.83,0-3.56-.8-4.75-2.21L7.8,90.92c-2.8-3.28-2.77-8.21.07-11.46L70.49,7.76c1.19-1.37,2.91-2.15,4.71-2.15,1.95,0,3.83.93,5.01,2.48,1.19,1.55,1.57,3.54,1.05,5.44l-.05.18-19.72,62.77c-1.25,4.16.35,17.02,2.03,22.86l16.77,58.28c.49,1.9.09,3.86-1.1,5.4-1.19,1.53-3.05,2.45-4.99,2.45h0Z" fill="#a83216"/>
  <path d="M75.2,10.61c.76,0,1.49.7,1.24,1.61l-19.72,62.77c-1.74,5.79.33,19.93,2,25.74l16.73,58.15c.23.9-.49,1.59-1.25,1.59-.34,0-.68-.14-.95-.45L11.61,87.68c-1.21-1.42-1.2-3.52.03-4.93L74.26,11.05c.27-.31.61-.44.94-.44M75.2.61c-3.24,0-6.33,1.41-8.47,3.86L4.1,76.17c-4.46,5.1-4.5,12.84-.11,17.99l61.65,72.35c2.15,2.52,5.27,3.97,8.56,3.97,3.47,0,6.82-1.64,8.94-4.39,2.14-2.77,2.87-6.3,1.99-9.71l-.03-.13-.04-.13-16.73-58.15c-1.69-5.89-2.83-17.12-2.04-20.08l19.68-62.67.06-.18.05-.18c.93-3.42.24-6.99-1.9-9.79-2.13-2.78-5.49-4.45-8.99-4.45h0Z" fill="currentColor"/>
</svg>