<?xml version="1.0" encoding="UTF-8"?>
<svg id="Layer_4" data-name="Layer 4" xmlns="http://www.w3.org/2000/svg" viewBox="0 0 841.07 664.57">
  <path d="M767.24,495.41c-8.68,53.43-13.01,80.15-33.41,100.39-17.88,17.74-40.03,22.66-53.88,25.31-169.7,32.44-544.52,77.66-637.38,2.67C-13.1,578.82-11.56,99.07,32.01,30.38,57.12-9.2,265.43-2.26,287.3,7.86c43.4,20.08,32.96,48.06,43.15,55.3,0,0,2.28,1.25,5.39,1.72,26.05,3.98,422.37-48.36,470.57,29.3,13.51,21.78,4.73,78.69-12.83,192.51-.95,6.18-3.8,23.87,5.56,31.66,10.29,8.57,32.02,2.39,33.51,8.02.64,2.4-2.85,5.22-1.63,6.8,1.43,1.84,6.62-1.44,9,.77,1.88,1.75.74,5.77.42,6.89-1.38,4.83-5.66,9.4-11.14,11.01-5.94,1.75-8.44-1.4-11.77.92-4.3,3-1.85,9.48-5.82,11.63-2.78,1.51-4.65-1.32-11.23-1.45-1.54-.03-7.8-.15-12.36,3.55-3.91,3.17-4.92,7.86-5.47,10.18" fill="#e2d4b2"/>
  <text transform="translate(62.62 91.62)" fill="#a83216" font-family="JosefinSansRoman-SemiBold, &apos;Josefin Sans&apos;" font-size="72" font-variation-settings="&apos;wght&apos; 600" font-weight="600"><tspan x="0" y="0">Hi, I’m</tspan></text>
  <text transform="translate(69.81 253.3)" fill="#2d7569" font-family="IntervogueSoftAlt-Black, &apos;Intervogue Soft Alt&apos;" font-size="188" font-weight="800"><tspan x="0" y="0">JUSTIN</tspan></text>
  <text transform="translate(16.67 356.74)" fill="#a83216" font-family="Pacifico-Regular, Pacifico"><tspan x="0" y="0" font-size="95.05" letter-spacing="-.2em">F</tspan><tspan x="48.86" y="0" font-size="63.07">ull </tspan><tspan x="135.83" y="0" font-size="53.3" letter-spacing="0em">-</tspan><tspan x="157.31" y="0" font-size="91.5" letter-spacing="-.01em">S</tspan><tspan x="219.62" y="0" font-size="63.07">tack</tspan><tspan x="330.37" y="0" font-size="53.3"> </tspan><tspan x="344.49" y="0" font-size="95.05" letter-spacing="-.05em">W</tspan><tspan x="455.13" y="0" font-size="63.07">eb </tspan><tspan x="526.47" y="0" font-size="95.05" letter-spacing="-.08em">D</tspan><tspan x="598.71" y="0" font-size="63.07" letter-spacing="0em">e</tspan><tspan x="623.81" y="0" font-size="63.07">veloper</tspan></text>
  <text transform="translate(30.61 404.81)" font-family="JosefinSansRoman-Medium, &apos;Josefin Sans&apos;" font-size="54" font-variation-settings="&apos;wght&apos; 500" font-weight="500"><tspan x="0" y="0" letter-spacing="-.08em">Just What </tspan><tspan x="222.1" y="0" letter-spacing="-.18em">Y</tspan><tspan x="249.91" y="0" letter-spacing="-.08em">our </tspan><tspan x="330.96" y="0" letter-spacing="-.17em">W</tspan><tspan x="376.43" y="0" letter-spacing="-.08em">ebsite O</tspan><tspan x="552.46" y="0" letter-spacing="-.09em">r</tspan><tspan x="568.07" y="0" letter-spacing="-.08em">de</tspan><tspan x="620.67" y="0" letter-spacing="-.09em">r</tspan><tspan x="636.27" y="0" letter-spacing="-.08em">ed!</tspan></text>
  <text transform="translate(71.55 466.65)" font-family="JosefinSansRoman-Regular, &apos;Josefin Sans&apos;" font-size="39" font-variation-settings="&apos;wght&apos; 400"><tspan x="0" y="0" letter-spacing="-.07em">I whip up sleek, </tspan><tspan x="231.11" y="0" letter-spacing="-.09em">r</tspan><tspan x="242.19" y="0" letter-spacing="-.07em">esponsi</tspan><tspan x="349.86" y="0" letter-spacing="-.08em">v</tspan><tspan x="365.85" y="0" letter-spacing="-.07em">e </tspan><tspan x="392.68" y="0" letter-spacing="-.08em">w</tspan><tspan x="415.69" y="0" letter-spacing="-.07em">ebsites using </tspan><tspan x="0" y="53" letter-spacing="-.07em">the full MERN stack. </tspan><tspan x="316.83" y="53" letter-spacing="-.18em">T</tspan><tspan x="332.43" y="53" letter-spacing="-.07em">opped off with clean </tspan><tspan letter-spacing="-.07em"><tspan x="0" y="106">code, custom flair, and just the right amount </tspan></tspan><tspan x="0" y="159" letter-spacing="-.07em">of </tspan><tspan x="39.7" y="159" letter-spacing="-.08em">r</tspan><tspan x="51.09" y="159" letter-spacing="-.07em">azzle-dazzle.</tspan></text>
</svg>