<?xml version="1.0" encoding="UTF-8"?>
<svg id="Layer_9" data-name="Layer 9" xmlns="http://www.w3.org/2000/svg" viewBox="0 0 412.65 339.23">
  <g id="subtextStroke_copy" data-name="subtextStroke copy">
    <g>
      <path d="M57.04,290.99c-11.46,0-21.26-8.16-23.36-19.43l-13.1-47.29c-1.63-5.9-.54-12.16,3-17.15,3.54-5,9.08-8.1,15.19-8.52l16.91-1.15.56,1.93c.27.92.58,2.01.87,3.19.96,3.92,1.97,7.43,3.07,10.73.75,2.26,1.27,4.51,1.78,6.69.24,1.05.49,2.1.76,3.16.28,1.08.58,2.16.88,3.23.4,1.42.82,2.9,1.17,4.39l.05.22v.23c.08,1.44.12,2.87.15,4.31.02,1.03.05,2.07.09,3.09.23,5.87.86,11.45,1.9,16.58,1,4.95,2.5,9.98,3.95,14.84.68,2.29,1.39,4.67,2.04,7.01.84,3.04,2.45,6.01,4.65,8.6l3.22,3.78-22.16,1.49c-.54.04-1.08.05-1.61.05h0Z" fill="#dfb448"/>
      <path d="M53.85,200.09c.29.99.58,2.01.84,3.09.91,3.7,1.92,7.31,3.12,10.92,1.07,3.2,1.65,6.42,2.48,9.68.65,2.54,1.44,5.04,2.04,7.58.12,2.46.13,4.92.23,7.38.22,5.68.83,11.41,1.95,16.98,1.5,7.42,4.01,14.73,6.03,22.02.95,3.43,2.77,6.75,5.15,9.55l-17.21,1.16c-.48.03-.97.05-1.45.05-10.21,0-19.08-7.31-20.92-17.49l-13.13-47.4c-3.01-10.86,4.71-21.75,15.95-22.51l14.9-1.01M57.52,194.83l-4.01.27-14.9,1.01c-6.86.47-13.08,3.95-17.06,9.57-3.98,5.61-5.21,12.64-3.37,19.27l13.07,47.19c2.36,12.39,13.17,21.36,25.8,21.36.59,0,1.19-.02,1.78-.06l17.21-1.16,9.9-.67-6.43-7.56c-1.97-2.31-3.4-4.96-4.14-7.65-.65-2.36-1.36-4.74-2.05-7.05-1.43-4.81-2.92-9.78-3.89-14.62-1.01-5.01-1.63-10.45-1.85-16.18-.04-1.02-.06-2.04-.09-3.07-.03-1.42-.07-2.89-.14-4.37l-.02-.46-.1-.44c-.37-1.54-.79-3.05-1.2-4.5-.31-1.09-.6-2.13-.87-3.17-.26-1.02-.49-2.03-.74-3.1-.52-2.24-1.05-4.55-1.84-6.93-1.08-3.24-2.07-6.69-3.01-10.53-.3-1.22-.62-2.35-.9-3.29l-1.12-3.86h0Z"/>
    </g>
    <g>
      <path d="M335.28,268.59c.39-.84.72-1.71,1-2.58l.05-.16.07-.15c1.15-2.42,2.44-4.89,3.82-7.36,3.04-5.43,5.47-10.15,7.45-15.58,2.81-7.73,3.94-16.47,4.84-23.5.66-4.07,1.66-7.98,2.62-11.75.83-3.23,1.68-6.57,2.29-9.89.96-5.23,1.87-9.94,3.31-14.62l.14-.45.29-.37c1.07-1.35,2-2.81,2.74-4.35l.63-1.31,29.45-1.99c.34-.03.7-.04,1.06-.04,4.54,0,8.77,2.27,11.31,6.07,2.54,3.79,3.01,8.57,1.26,12.79l-26.59,64.34c-3.02,7.31-9.8,12.18-17.69,12.71l-29.84,2.01,1.76-3.82Z" fill="#dfb448"/>
      <path d="M395.06,177c7.82,0,13.32,8,10.26,15.4l-26.59,64.34c-2.64,6.38-8.66,10.71-15.54,11.17l-25.64,1.73c.42-.92.8-1.87,1.11-2.86,1.17-2.44,2.42-4.85,3.74-7.21,2.94-5.24,5.53-10.21,7.62-15.94,2.8-7.69,3.93-15.92,4.97-24.04,1.18-7.29,3.56-14.24,4.89-21.5.89-4.84,1.8-9.66,3.24-14.34,1.19-1.49,2.21-3.11,3.04-4.82l28-1.9c.3-.02.6-.03.89-.03M395.06,172c-.42,0-.85.02-1.28.05l-27.96,1.89-2.89.2-1.27,2.61c-.67,1.38-1.49,2.68-2.45,3.89l-.59.74-.28.9c-1.48,4.82-2.41,9.6-3.38,14.91-.59,3.23-1.4,6.38-2.25,9.72-.98,3.83-1.99,7.79-2.66,11.89v.08s-.02.08-.02.08c-1.13,8.78-2.19,16.05-4.71,22.96-1.92,5.27-4.3,9.89-7.28,15.21-1.41,2.51-2.72,5.04-3.9,7.51l-.14.3-.1.32c-.25.78-.55,1.55-.9,2.3l-3.51,7.64,8.39-.57,25.64-1.73c8.85-.6,16.44-6.06,19.83-14.25l26.59-64.34c2.06-4.99,1.5-10.65-1.5-15.13-3.01-4.49-8.01-7.18-13.39-7.18h0Z"/>
    </g>
  </g>
  <g id="blueBorder_copy" data-name="blueBorder copy">
    <g>
      <path d="M120.07,335.47c-31.63,0-59.42-22.17-66.08-52.71L4.69,56.58c-2.79-12.79.33-25.98,8.56-36.19C21.69,9.91,34.22,3.9,47.63,3.9c2.37,0,4.78.19,7.15.57l295.98,47.01c17.24,2.74,32.6,12.59,42.13,27.03,9.5,14.39,12.44,31.49,8.25,48.16l-31.85,127.04c-9.78,39.01-43.64,67.17-84.26,70.09l-160.03,11.49c-1.64.12-3.31.18-4.95.18Z" fill="#003f50"/>
      <path d="M47.63,6.4c2.22,0,4.47.17,6.76.54l295.98,47.01c34.4,5.46,56.72,38.75,48.35,72.11l-31.85,127.04c-9.49,37.85-42.59,65.37-82.01,68.2l-160.03,11.49c-1.6.11-3.19.17-4.78.17-30.45,0-57.14-20.97-63.64-50.74l-23.72-108.83L7.13,56.05C1.47,30.07,21.83,6.4,47.63,6.4M47.64,1.4h0c-14.17,0-27.42,6.35-36.33,17.42C2.6,29.63-.7,43.58,2.25,57.11l25.58,117.35,23.72,108.83c3.37,15.48,12.11,29.47,24.61,39.39,12.42,9.86,28.01,15.29,43.91,15.29,1.7,0,3.43-.06,5.13-.18l160.03-11.49c20.39-1.46,39.43-9.11,55.07-22.11,15.65-13.01,26.52-30.25,31.43-49.86l31.85-127.04c4.35-17.36,1.3-35.17-8.59-50.15-9.92-15.02-25.9-25.27-43.83-28.12L55.18,2c-2.5-.4-5.04-.6-7.54-.6h0Z"/>
    </g>
  </g>
  <g id="redFIll_copy" data-name="redFIll copy">
    <g>
      <path d="M126.09,313.64c-24.76,0-46.5-17.31-51.7-41.17L28.67,62.68c-1.95-8.95.23-18.17,5.99-25.32,5.96-7.39,14.79-11.63,24.25-11.63,1.69,0,3.4.14,5.09.41l274.55,43.6c13.28,2.11,25.1,9.68,32.43,20.78,7.28,11.02,9.53,24.11,6.33,36.88l-29.55,117.84c-8.04,32.06-35.9,55.21-69.33,57.61l-148.44,10.66c-1.29.09-2.6.14-3.89.14Z" fill="#a83216"/>
      <path d="M58.91,33.22c1.29,0,2.61.11,3.91.31l274.55,43.6c11.37,1.81,21.08,8.02,27.35,17.51,6.11,9.24,7.99,20.22,5.31,30.92l-29.55,117.84c-7.25,28.91-32.4,49.78-62.6,51.95l-148.44,10.66c-1.11.08-2.24.12-3.35.12-10.33,0-20.46-3.52-28.52-9.92-8.05-6.39-13.68-15.39-15.85-25.34l-22-100.95-23.72-108.85c-1.49-6.81.11-13.57,4.5-19.02,4.53-5.62,11.24-8.84,18.41-8.84h0M58.91,18.22c-23.94,0-42.82,21.96-37.57,46.05l23.72,108.85,22,100.95c6.02,27.62,30.78,47.07,59.03,47.07,1.47,0,2.95-.05,4.43-.16l148.44-10.66c36.57-2.63,67.27-28.16,76.07-63.26l29.55-117.84c7.76-30.94-12.95-61.82-44.85-66.89L65.18,18.72c-2.12-.34-4.21-.5-6.27-.5h0Z" fill="#2d7569"/>
    </g>
  </g>
  <g id="subTextBox_copy" data-name="subTextBox copy">
    <g>
      <path d="M57.04,280.99c-6.66,0-12.35-4.76-13.54-11.32l-.06-.34-13.22-47.72c-.83-3-.27-6.17,1.52-8.7,1.8-2.54,4.61-4.11,7.71-4.32l355.22-24.07c.18-.01.28-.02.39-.02,1.72,0,2.67,1.14,3,1.63.4.6.98,1.85.33,3.41l-26.59,64.34c-1.56,3.77-5.05,6.28-9.12,6.55l-304.71,20.53c-.32.02-.63.03-.94.03Z" fill="#dfb448"/>
      <path d="M389.09,192.41l-24.21,58.6c-.46,1.11-1.49,1.85-2.69,1.93l-304.71,20.53c-.15,0-.29.01-.44.01-3.03,0-5.62-2.17-6.16-5.16l-.12-.67-.18-.66-13.13-47.4c-.29-1.06.06-1.87.41-2.37.35-.49,1-1.1,2.1-1.17l349.13-23.65M395.06,177c-.29,0-.59.01-.89.03l-355.22,24.07c-11.24.76-18.96,11.65-15.95,22.51l13.13,47.4c1.84,10.18,10.71,17.49,20.92,17.49.48,0,.96-.02,1.45-.05l304.71-20.53c6.88-.46,12.91-4.79,15.54-11.17l26.59-64.34c3.06-7.4-2.44-15.4-10.26-15.4h0Z" fill="#003f50"/>
    </g>
  </g>
  <g id="Justin_copy" data-name="Justin copy">
    <text transform="translate(51.87 165.88)" fill="#721c10" font-family="FONTSPRINGDEMO-KioskScriptRegular, &apos;FONTSPRING DEMO - Kiosk Script&apos;" font-size="175.57"><tspan x="0" y="0">Justin</tspan></text>
    <text transform="translate(51.87 158)" fill="#e2d4b2" font-family="FONTSPRINGDEMO-KioskScriptRegular, &apos;FONTSPRING DEMO - Kiosk Script&apos;" font-size="175.57"><tspan x="0" y="0">Justin</tspan></text>
  </g>
  <g id="Dyer.News_copy" data-name="Dyer.News copy">
    <text transform="translate(65.91 264.69) rotate(-3.7)" fill="#c49a3f" font-family="JosefinSansRoman-Bold, &apos;Josefin Sans&apos;" font-size="50.35" font-variation-settings="&apos;wght&apos; 700" font-weight="700"><tspan x="0" y="0" letter-spacing="-.05em">D</tspan><tspan x="36.3" y="0" letter-spacing="0em">YER.NEWS</tspan></text>
    <text transform="translate(62.17 261.18) rotate(-3.7)" fill="#e2d4b2" font-family="JosefinSansRoman-Bold, &apos;Josefin Sans&apos;" font-size="50.35" font-variation-settings="&apos;wght&apos; 700" font-weight="700"><tspan x="0" y="0" letter-spacing="-.05em">D</tspan><tspan x="36.3" y="0" letter-spacing="0em">YER.NEWS</tspan></text>
  </g>
</svg>