<?xml version="1.0" encoding="UTF-8"?>
<svg id="Layer_9" data-name="Layer 9" xmlns="http://www.w3.org/2000/svg" viewBox="0 0 412.65 339.23">
  <g id="subtextStroke_copy" data-name="subtextStroke copy">
    <g>
      <path d="M57.04,290.99c-11.46,0-21.26-8.16-23.36-19.43l-13.1-47.29c-1.63-5.9-.54-12.16,3-17.15,3.54-5,9.08-8.1,15.19-8.52l16.91-1.15.56,1.93c.27.92.58,2.01.87,3.19.96,3.92,1.97,7.43,3.07,10.73.75,2.26,1.27,4.51,1.78,6.69.24,1.05.49,2.1.76,3.16.28,1.08.58,2.16.88,3.23.4,1.42.82,2.9,1.17,4.39l.05.22v.23c.08,1.44.12,2.87.15,4.31.02,1.03.05,2.07.09,3.09.23,5.87.86,11.45,1.9,16.58,1,4.95,2.5,9.98,3.95,14.84.68,2.29,1.39,4.67,2.04,7.01.84,3.04,2.45,6.01,4.65,8.6l3.22,3.78-22.16,1.49c-.54.04-1.08.05-1.61.05h0Z" fill="#dfb448"/>
      <path d="M53.85,200.09c.29.99.58,2.01.84,3.09.91,3.7,1.92,7.31,3.12,10.92,1.07,3.2,1.65,6.42,2.48,9.68.65,2.54,1.44,5.04,2.04,7.58.12,2.46.13,4.92.23,7.38.22,5.68.83,11.41,1.95,16.98,1.5,7.42,4.01,14.73,6.03,22.02.95,3.43,2.77,6.75,5.15,9.55l-17.21,1.16c-.48.03-.97.05-1.45.05-10.21,0-19.08-7.31-20.92-17.49l-13.13-47.4c-3.01-10.86,4.71-21.75,15.95-22.51l14.9-1.01M57.52,194.83l-4.01.27-14.9,1.01c-6.86.47-13.08,3.95-17.06,9.57-3.98,5.61-5.21,12.64-3.37,19.27l13.07,47.19c2.36,12.39,13.17,21.36,25.8,21.36.59,0,1.19-.02,1.78-.06l17.21-1.16,9.9-.67-6.43-7.56c-1.97-2.31-3.4-4.96-4.14-7.65-.65-2.36-1.36-4.74-2.05-7.05-1.43-4.81-2.92-9.78-3.89-14.62-1.01-5.01-1.63-10.45-1.85-16.18-.04-1.02-.06-2.04-.09-3.07-.03-1.42-.07-2.89-.14-4.37l-.02-.46-.1-.44c-.37-1.54-.79-3.05-1.2-4.5-.31-1.09-.6-2.13-.87-3.17-.26-1.02-.49-2.03-.74-3.1-.52-2.24-1.05-4.55-1.84-6.93-1.08-3.24-2.07-6.69-3.01-10.53-.3-1.22-.62-2.35-.9-3.29l-1.12-3.86h0Z"/>
    </g>
    <g>
      <path d="M335.28,268.59c.39-.84.72-1.71,1-2.58l.05-.16.07-.15c1.15-2.42,2.44-4.89,3.82-7.36,3.04-5.43,5.47-10.15,7.45-15.58,2.81-7.73,3.94-16.47,4.84-23.5.66-4.07,1.66-7.98,2.62-11.75.83-3.23,1.68-6.57,2.29-9.89.96-5.23,1.87-9.94,3.31-14.62l.14-.45.29-.37c1.07-1.35,2-2.81,2.74-4.35l.63-1.31,29.45-1.99c.34-.03.7-.04,1.06-.04,4.54,0,8.77,2.27,11.31,6.07,2.54,3.79,3.01,8.57,1.26,12.79l-26.59,64.34c-3.02,7.31-9.8,12.18-17.69,12.71l-29.84,2.01,1.76-3.82Z" fill="#dfb448"/>
      <path d="M395.06,177c7.82,0,13.32,8,10.26,15.4l-26.59,64.34c-2.64,6.38-8.66,10.71-15.54,11.17l-25.64,1.73c.42-.92.8-1.87,1.11-2.86,1.17-2.44,2.42-4.85,3.74-7.21,2.94-5.24,5.53-10.21,7.62-15.94,2.8-7.69,3.93-15.92,4.97-24.04,1.18-7.29,3.56-14.24,4.89-21.5.89-4.84,1.8-9.66,3.24-14.34,1.19-1.49,2.21-3.11,3.04-4.82l28-1.9c.3-.02.6-.03.89-.03M395.06,172c-.42,0-.85.02-1.28.05l-27.96,1.89-2.89.2-1.27,2.61c-.67,1.38-1.49,2.68-2.45,3.89l-.59.74-.28.9c-1.48,4.82-2.41,9.6-3.38,14.91-.59,3.23-1.4,6.38-2.25,9.72-.98,3.83-1.99,7.79-2.66,11.89v.08s-.02.08-.02.08c-1.13,8.78-2.19,16.05-4.71,22.96-1.92,5.27-4.3,9.89-7.28,15.21-1.41,2.51-2.72,5.04-3.9,7.51l-.14.3-.1.32c-.25.78-.55,1.55-.9,2.3l-3.51,7.64,8.39-.57,25.64-1.73c8.85-.6,16.44-6.06,19.83-14.25l26.59-64.34c2.06-4.99,1.5-10.65-1.5-15.13-3.01-4.49-8.01-7.18-13.39-7.18h0Z"/>
    </g>
  </g>
  <g id="blueBorder_copy" data-name="blueBorder copy">
    <g>
      <path d="M120.07,335.47c-31.63,0-59.42-22.17-66.08-52.71L4.69,56.58c-2.79-12.79.33-25.98,8.56-36.19C21.69,9.91,34.22,3.9,47.63,3.9c2.37,0,4.78.19,7.15.57l295.98,47.01c17.24,2.74,32.6,12.59,42.13,27.03,9.5,14.39,12.44,31.49,8.25,48.16l-31.85,127.04c-9.78,39.01-43.64,67.17-84.26,70.09l-160.03,11.49c-1.64.12-3.31.18-4.95.18Z" fill="#003f50"/>
      <path d="M47.63,6.4c2.22,0,4.47.17,6.76.54l295.98,47.01c34.4,5.46,56.72,38.75,48.35,72.11l-31.85,127.04c-9.49,37.85-42.59,65.37-82.01,68.2l-160.03,11.49c-1.6.11-3.19.17-4.78.17-30.45,0-57.14-20.97-63.64-50.74l-23.72-108.83L7.13,56.05C1.47,30.07,21.83,6.4,47.63,6.4M47.64,1.4h0c-14.17,0-27.42,6.35-36.33,17.42C2.6,29.63-.7,43.58,2.25,57.11l25.58,117.35,23.72,108.83c3.37,15.48,12.11,29.47,24.61,39.39,12.42,9.86,28.01,15.29,43.91,15.29,1.7,0,3.43-.06,5.13-.18l160.03-11.49c20.39-1.46,39.43-9.11,55.07-22.11,15.65-13.01,26.52-30.25,31.43-49.86l31.85-127.04c4.35-17.36,1.3-35.17-8.59-50.15-9.92-15.02-25.9-25.27-43.83-28.12L55.18,2c-2.5-.4-5.04-.6-7.54-.6h0Z"/>
    </g>
  </g>
  <g id="redFIll_copy" data-name="redFIll copy">
    <g>
      <path d="M126.09,313.64c-24.76,0-46.5-17.31-51.7-41.17L28.67,62.68c-1.95-8.95.23-18.17,5.99-25.32,5.96-7.39,14.79-11.63,24.25-11.63,1.69,0,3.4.14,5.09.41l274.55,43.6c13.28,2.11,25.1,9.68,32.43,20.78,7.28,11.02,9.53,24.11,6.33,36.88l-29.55,117.84c-8.04,32.06-35.9,55.21-69.33,57.61l-148.44,10.66c-1.29.09-2.6.14-3.89.14Z" fill="#a83216"/>
      <path d="M58.91,33.22c1.29,0,2.61.11,3.91.31l274.55,43.6c11.37,1.81,21.08,8.02,27.35,17.51,6.11,9.24,7.99,20.22,5.31,30.92l-29.55,117.84c-7.25,28.91-32.4,49.78-62.6,51.95l-148.44,10.66c-1.11.08-2.24.12-3.35.12-10.33,0-20.46-3.52-28.52-9.92-8.05-6.39-13.68-15.39-15.85-25.34l-22-100.95-23.72-108.85c-1.49-6.81.11-13.57,4.5-19.02,4.53-5.62,11.24-8.84,18.41-8.84h0M58.91,18.22c-23.94,0-42.82,21.96-37.57,46.05l23.72,108.85,22,100.95c6.02,27.62,30.78,47.07,59.03,47.07,1.47,0,2.95-.05,4.43-.16l148.44-10.66c36.57-2.63,67.27-28.16,76.07-63.26l29.55-117.84c7.76-30.94-12.95-61.82-44.85-66.89L65.18,18.72c-2.12-.34-4.21-.5-6.27-.5h0Z" fill="#2d7569"/>
    </g>
  </g>
  <g id="subTextBox_copy" data-name="subTextBox copy">
    <g>
      <path d="M57.04,280.99c-6.66,0-12.35-4.76-13.54-11.32l-.06-.34-13.22-47.72c-.83-3-.27-6.17,1.52-8.7,1.8-2.54,4.61-4.11,7.71-4.32l355.22-24.07c.18-.01.28-.02.39-.02,1.72,0,2.67,1.14,3,1.63.4.6.98,1.85.33,3.41l-26.59,64.34c-1.56,3.77-5.05,6.28-9.12,6.55l-304.71,20.53c-.32.02-.63.03-.94.03Z" fill="#dfb448"/>
      <path d="M389.09,192.41l-24.21,58.6c-.46,1.11-1.49,1.85-2.69,1.93l-304.71,20.53c-.15,0-.29.01-.44.01-3.03,0-5.62-2.17-6.16-5.16l-.12-.67-.18-.66-13.13-47.4c-.29-1.06.06-1.87.41-2.37.35-.49,1-1.1,2.1-1.17l349.13-23.65M395.06,177c-.29,0-.59.01-.89.03l-355.22,24.07c-11.24.76-18.96,11.65-15.95,22.51l13.13,47.4c1.84,10.18,10.71,17.49,20.92,17.49.48,0,.96-.02,1.45-.05l304.71-20.53c6.88-.46,12.91-4.79,15.54-11.17l26.59-64.34c3.06-7.4-2.44-15.4-10.26-15.4h0Z" fill="#003f50"/>
    </g>
  </g>
  <g id="Justin_copy" data-name="Justin copy">
    <g>
      <path d="M116.25,160.54c-14.75,20.89-31.43,33.18-42.66,33.18-4.74,0-8.95-5.27-8.25-7.37,1.58-4.56,19.84-4.39,41.26-34.06,13.87-19.14,22.82-37.4,26.16-51.09,2.63-10.53,1.58-21.59-11.76-21.59-16.33,0-42.14,15.1-47.05,39.85-4.04,20.37,11.76,29.14,26.33,23.88,3.51-1.05,4.39,2.81-.7,5.62-19.14,11.06-46.17-1.93-39.68-28.62,6.32-26.16,37.57-48.63,58.29-48.63,18.96,0,30.02,13.52,24.4,34.94-5.27,20.89-16.68,40.2-26.33,53.9Z" fill="#721c10"/>
      <path d="M148.02,144.57c-3.16,7.55-2.28,11.41-.18,11.41,2.46,0,8.08-7.55,15.8-21.24,2.81-5.27,6.5-10.71,10.71-15.27,3.34-3.69,9.83,0,8.78,1.93-4.04,7.2-6.67,11.59-11.41,23-3.34,8.08-4.39,13.17-1.05,13.34,3.51.18,15.27-8.95,27.39-27.21.88-1.4,6.32,1.05,3.51,5.27-7.02,11.76-23.88,30.02-34.76,30.02-6.15,0-9.83-4.39-9.83-11.41-4.74,6.5-10.18,11.41-15.1,11.41-8.78,0-11.24-8.78-6.32-20.89,2.81-7.02,9.48-18.61,16.85-25.63,3.69-3.51,10.71.7,9.13,2.28-2.98,3.34-8.78,11.59-13.52,23Z" fill="#721c10"/>
      <path d="M202.45,157.91c2.98-1.93,5.79-5.62,7.02-10.36,2.46-9.48.88-23.7,0-22.3-1.93,3.16-9.13,12.99-15.1,20.19-4.39,5.09-7.72.18-5.09-3.16,5.62-7.55,11.94-16.85,16.5-24.05,1.4-2.28,2.28-3.51,4.21-3.51,2.46,0,7.9,2.46,8.43,4.39,2.63,8.43,4.39,20.72,2.46,29.32-.53,2.28-1.05,4.21-1.93,5.79,5.27-4.74,10.89-12.29,18.43-23.88.88-1.23,6.32,1.05,3.69,5.44-12.29,20.01-24.58,30.55-39.85,30.02h-.7c-3.16,0-8.6-1.93-10.71-5.79-1.4-2.81-1.76-6.14,1.05-7.72,2.63-1.4,8.78,1.4,11.59,5.62Z" fill="#721c10"/>
      <path d="M244.58,117c1.23-2.28,2.63-4.21,4.04-6.32,5.27-8.25,9.3-11.76,11.06-11.76,1.93,0,5.62,6.32,5.62,8.25,0,2.11-2.46,5.09-6.32,9.83,3.86.18,7.02.53,8.95,1.23.7.18,1.4,2.11.53,3.69-1.23,2.63-3.69,3.86-6.67,4.21-2.63.35-5.27.35-9.66.18-2.81,5.44-8.95,18.08-8.78,17.91-3.86,8.43-3.69,13.17-.53,13.34,4.39.18,17.73-7.9,30.2-27.04.88-1.4,6.32.88,3.69,5.27-7.73,12.64-24.58,29.85-37.75,29.85-8.78,0-12.99-8.78-8.08-20.89,2.63-6.67,5.62-13.34,9.13-19.84-2.81-.53-5.27-1.23-6.85-1.93-2.28-.88-1.58-4.74,1.4-5.27,2.46-.35,6.14-.53,10.01-.7Z" fill="#721c10"/>
      <path d="M278.11,145.97c-2.81,7.55-2.98,11.59-.18,11.76,3.51.18,15.27-8.95,27.39-27.21.7-1.4,6.32,1.05,3.69,5.27-7.2,11.76-24.05,30.02-34.94,30.02-8.6,0-12.47-8.78-7.73-20.89,2.81-7.02,8.25-19.14,13.87-25.46,2.63-2.81,10.01,3.16,8.78,4.92-1.76,2.63-8.6,15.63-10.88,21.59ZM295.85,99.8c4.21,0,9.13,5.97,7.72,8.43-1.76,2.81-10.01,6.5-13.52,6.5-3.86,0-3.34-6.85-.7-10.71,1.76-2.63,4.21-4.21,6.5-4.21Z" fill="#721c10"/>
      <path d="M326.92,135.09l-6.14,6.85c-14.4,16.15-17.56,23.88-21.6,23.88-1.23,0-5.44-2.81-5.44-5.09,0-2.63,2.46-10.18,4.74-15.98,2.98-7.2,8.08-19.14,12.11-25.46,2.63-4.21,11.76.35,10.71,2.28-1.4,2.81-3.86,7.9-7.37,15.98-3.16,7.55-3.86,9.13-3.69,9.13s3.16-4.21,7.73-9.13c5.09-5.44,13.17-14.4,20.01-19.31.7-.53,3.16-.53,5.62,1.4,1.93,1.76,2.11,3.16.7,5.79-2.81,5.09-5.27,9.83-9.13,18.96-3.34,8.08-4.56,13.17-1.05,13.34,3.51.18,15.27-8.95,27.39-27.21.88-1.4,6.32,1.05,3.51,5.27-7.02,11.76-24.05,30.02-34.94,30.02-8.6,0-12.47-8.78-7.55-20.89,1.05-2.81,2.63-6.15,4.39-9.83Z" fill="#721c10"/>
    </g>
    <g>
      <path d="M116.25,152.66c-14.75,20.89-31.43,33.18-42.66,33.18-4.74,0-8.95-5.27-8.25-7.37,1.58-4.56,19.84-4.39,41.26-34.06,13.87-19.14,22.82-37.4,26.16-51.09,2.63-10.53,1.58-21.59-11.76-21.59-16.33,0-42.14,15.1-47.05,39.85-4.04,20.37,11.76,29.14,26.33,23.88,3.51-1.05,4.39,2.81-.7,5.62-19.14,11.06-46.17-1.93-39.68-28.62,6.32-26.16,37.57-48.63,58.29-48.63,18.96,0,30.02,13.52,24.4,34.94-5.27,20.89-16.68,40.2-26.33,53.9Z" fill="#e2d4b2"/>
      <path d="M148.02,136.69c-3.16,7.55-2.28,11.41-.18,11.41,2.46,0,8.08-7.55,15.8-21.24,2.81-5.27,6.5-10.71,10.71-15.27,3.34-3.69,9.83,0,8.78,1.93-4.04,7.2-6.67,11.59-11.41,23-3.34,8.08-4.39,13.17-1.05,13.34,3.51.18,15.27-8.95,27.39-27.21.88-1.4,6.32,1.05,3.51,5.27-7.02,11.76-23.88,30.02-34.76,30.02-6.15,0-9.83-4.39-9.83-11.41-4.74,6.5-10.18,11.41-15.1,11.41-8.78,0-11.24-8.78-6.32-20.89,2.81-7.02,9.48-18.61,16.85-25.63,3.69-3.51,10.71.7,9.13,2.28-2.98,3.34-8.78,11.59-13.52,23Z" fill="#e2d4b2"/>
      <path d="M202.45,150.03c2.98-1.93,5.79-5.62,7.02-10.36,2.46-9.48.88-23.7,0-22.3-1.93,3.16-9.13,12.99-15.1,20.19-4.39,5.09-7.72.18-5.09-3.16,5.62-7.55,11.94-16.85,16.5-24.05,1.4-2.28,2.28-3.51,4.21-3.51,2.46,0,7.9,2.46,8.43,4.39,2.63,8.43,4.39,20.72,2.46,29.32-.53,2.28-1.05,4.21-1.93,5.79,5.27-4.74,10.89-12.29,18.43-23.88.88-1.23,6.32,1.05,3.69,5.44-12.29,20.01-24.58,30.55-39.85,30.02h-.7c-3.16,0-8.6-1.93-10.71-5.79-1.4-2.81-1.76-6.14,1.05-7.72,2.63-1.4,8.78,1.4,11.59,5.62Z" fill="#e2d4b2"/>
      <path d="M244.58,109.12c1.23-2.28,2.63-4.21,4.04-6.32,5.27-8.25,9.3-11.76,11.06-11.76,1.93,0,5.62,6.32,5.62,8.25,0,2.11-2.46,5.09-6.32,9.83,3.86.18,7.02.53,8.95,1.23.7.18,1.4,2.11.53,3.69-1.23,2.63-3.69,3.86-6.67,4.21-2.63.35-5.27.35-9.66.18-2.81,5.44-8.95,18.08-8.78,17.91-3.86,8.43-3.69,13.17-.53,13.34,4.39.18,17.73-7.9,30.2-27.04.88-1.4,6.32.88,3.69,5.27-7.73,12.64-24.58,29.85-37.75,29.85-8.78,0-12.99-8.78-8.08-20.89,2.63-6.67,5.62-13.34,9.13-19.84-2.81-.53-5.27-1.23-6.85-1.93-2.28-.88-1.58-4.74,1.4-5.27,2.46-.35,6.14-.53,10.01-.7Z" fill="#e2d4b2"/>
      <path d="M278.11,138.09c-2.81,7.55-2.98,11.59-.18,11.76,3.51.18,15.27-8.95,27.39-27.21.7-1.4,6.32,1.05,3.69,5.27-7.2,11.76-24.05,30.02-34.94,30.02-8.6,0-12.47-8.78-7.73-20.89,2.81-7.02,8.25-19.14,13.87-25.46,2.63-2.81,10.01,3.16,8.78,4.92-1.76,2.63-8.6,15.63-10.88,21.59ZM295.85,91.92c4.21,0,9.13,5.97,7.72,8.43-1.76,2.81-10.01,6.5-13.52,6.5-3.86,0-3.34-6.85-.7-10.71,1.76-2.63,4.21-4.21,6.5-4.21Z" fill="#e2d4b2"/>
      <path d="M326.92,127.21l-6.14,6.85c-14.4,16.15-17.56,23.88-21.6,23.88-1.23,0-5.44-2.81-5.44-5.09,0-2.63,2.46-10.18,4.74-15.98,2.98-7.2,8.08-19.14,12.11-25.46,2.63-4.21,11.76.35,10.71,2.28-1.4,2.81-3.86,7.9-7.37,15.98-3.16,7.55-3.86,9.13-3.69,9.13s3.16-4.21,7.73-9.13c5.09-5.44,13.17-14.4,20.01-19.31.7-.53,3.16-.53,5.62,1.4,1.93,1.76,2.11,3.16.7,5.79-2.81,5.09-5.27,9.83-9.13,18.96-3.34,8.08-4.56,13.17-1.05,13.34,3.51.18,15.27-8.95,27.39-27.21.88-1.4,6.32,1.05,3.51,5.27-7.02,11.76-24.05,30.02-34.94,30.02-8.6,0-12.47-8.78-7.55-20.89,1.05-2.81,2.63-6.15,4.39-9.83Z" fill="#e2d4b2"/>
    </g>
  </g>
  <g id="Dyer.News_copy" data-name="Dyer.News copy">
    <g>
      <path d="M70.67,264.44l-2.39-36.98,11.05-.71c3.72-.24,6.92.11,9.6,1.05,2.68.94,4.88,2.27,6.59,4.01,1.71,1.74,3.01,3.73,3.89,5.96.88,2.23,1.4,4.5,1.55,6.81.18,2.75-.16,5.25-1,7.51-.85,2.26-2.07,4.22-3.68,5.89-1.61,1.67-3.51,2.99-5.7,3.95-2.19.97-4.54,1.53-7.06,1.69l-12.86.83ZM77.5,256.93l4.32-.28c1.84-.12,3.5-.47,4.98-1.05,1.48-.58,2.73-1.38,3.76-2.39s1.79-2.24,2.28-3.71c.49-1.46.68-3.11.56-4.96-.16-2.41-.68-4.35-1.56-5.83-.89-1.47-1.93-2.59-3.14-3.35-1.21-.76-2.43-1.26-3.65-1.51-1.23-.24-2.26-.33-3.1-.28l-5.93.38,1.48,22.96Z" fill="#c49a3f"/>
      <path d="M115.75,249.97l-15.26-24.59,8.99-.58,10.79,18.58-2.15.29,8.15-19.95,8.99-.58-12.22,26.37.74,11.51-7.29.47-.74-11.51Z" fill="#c49a3f"/>
      <path d="M140.78,222.77l25.22-1.63.46,7.03-17.94,1.16.51,7.89,15.88-1.03.46,7.04-15.88,1.03.52,7.99,18.64-1.21.45,7.03-25.93,1.68-2.39-36.98Z" fill="#c49a3f"/>
      <path d="M185.45,219.88c2.31-.15,4.39.01,6.24.48,1.85.47,3.42,1.21,4.71,2.22,1.29,1.01,2.31,2.26,3.04,3.74.73,1.48,1.16,3.18,1.29,5.09.1,1.51-.03,3.03-.39,4.57-.35,1.54-1,2.96-1.94,4.26-.94,1.31-2.23,2.39-3.85,3.25-1.63.86-3.68,1.37-6.16,1.53l-5.23.34.76,11.76-7.29.47-2.39-36.98,11.21-.72ZM187.88,237.99c1.11-.07,2.01-.32,2.73-.73.71-.42,1.26-.92,1.64-1.52s.65-1.21.79-1.84c.14-.63.2-1.21.16-1.75-.03-.4-.12-.91-.27-1.52-.16-.61-.44-1.22-.85-1.84-.41-.61-1-1.11-1.79-1.5-.78-.39-1.81-.54-3.08-.46l-5.23.34.72,11.16,5.18-.33ZM195.01,242.07l10.07,13.68-8.49.55-10.26-13.46,8.68-.76Z" fill="#c49a3f"/>
      <path d="M207.81,249.32c.71-.75,1.51-1.16,2.42-1.22.84-.05,1.66.25,2.46.9.8.65,1.23,1.5,1.3,2.54.07,1.11-.25,2.01-.96,2.71-.71.7-1.49,1.08-2.32,1.13-.9.06-1.75-.21-2.55-.82-.8-.61-1.23-1.46-1.3-2.57-.07-1.04.25-1.93.96-2.69Z" fill="#c49a3f"/>
      <path d="M252.96,254.17l-29.67-23.51,2.24,1.07,1.61,22.6-7.39.48-2.49-38.44.3-.02,29.07,23.45-1.65-.6-1.64-23.05,7.34-.47,2.49,38.49h-.2Z" fill="#c49a3f"/>
      <path d="M260.22,215.05l25.22-1.63.46,7.03-17.94,1.16.51,7.89,15.88-1.03.46,7.04-15.88,1.03.52,7.99,18.64-1.21.45,7.03-25.93,1.68-2.39-36.98Z" fill="#c49a3f"/>
      <path d="M290.53,213.34l8.54-.55,9.39,22.7-1.19-.43,5.78-17.58,4.01,9.78-9.17,23.55-17.36-37.48ZM309.07,212.14l7.24-.47,10.55,21.87-1.32-.12,5.34-22.7,7.84-.51-11.79,39.26-17.85-37.34Z" fill="#c49a3f"/>
      <path d="M365.41,217.23c-1.46-.68-2.93-1.22-4.42-1.63-1.49-.41-2.87-.57-4.14-.49-1.57.1-2.79.5-3.66,1.2-.86.7-1.25,1.68-1.17,2.95.06.87.45,1.63,1.18,2.27.73.64,1.66,1.2,2.78,1.66,1.12.47,2.28.88,3.49,1.24,1.1.33,2.19.74,3.28,1.23,1.09.48,2.08,1.11,2.97,1.88.89.77,1.63,1.74,2.21,2.94.58,1.19.93,2.67,1.04,4.45.12,1.88-.25,3.65-1.12,5.32-.87,1.67-2.21,3.06-4.02,4.17-1.81,1.11-4.09,1.75-6.84,1.93-1.41.09-2.85.04-4.32-.15-1.48-.19-2.94-.53-4.38-1.03-1.44-.49-2.85-1.15-4.21-1.97l2.85-5.89c.91.58,1.89,1.08,2.95,1.5,1.05.42,2.11.73,3.16.93,1.05.2,2.02.27,2.89.22.87-.06,1.74-.24,2.61-.55.87-.31,1.58-.78,2.13-1.42.55-.64.79-1.5.72-2.57-.05-.74-.33-1.39-.86-1.96-.52-.57-1.21-1.08-2.07-1.53-.85-.45-1.78-.83-2.77-1.13-1.17-.36-2.37-.79-3.61-1.28-1.24-.49-2.42-1.11-3.53-1.87-1.11-.75-2.03-1.72-2.76-2.9-.73-1.18-1.16-2.66-1.27-4.43-.14-2.14.22-4.03,1.07-5.67.85-1.64,2.12-2.97,3.8-4s3.66-1.67,5.93-1.92c2.98-.19,5.42,0,7.33.59,1.9.58,3.62,1.31,5.16,2.19l-2.4,5.76Z" fill="#c49a3f"/>
    </g>
    <g>
      <path d="M66.93,260.92l-2.39-36.98,11.05-.71c3.72-.24,6.92.11,9.6,1.05,2.68.94,4.88,2.27,6.59,4.01,1.71,1.74,3.01,3.73,3.89,5.96.88,2.23,1.4,4.5,1.55,6.81.18,2.75-.16,5.25-1,7.51-.85,2.26-2.07,4.22-3.68,5.89-1.61,1.67-3.51,2.99-5.7,3.95-2.19.97-4.54,1.53-7.06,1.69l-12.86.83ZM73.76,253.42l4.32-.28c1.84-.12,3.5-.47,4.98-1.05,1.48-.58,2.73-1.38,3.76-2.39s1.79-2.24,2.28-3.71c.49-1.46.68-3.11.56-4.96-.16-2.41-.68-4.35-1.56-5.83-.89-1.47-1.93-2.59-3.14-3.35-1.21-.76-2.43-1.26-3.65-1.51-1.23-.24-2.26-.33-3.1-.28l-5.93.38,1.48,22.96Z" fill="#e2d4b2"/>
      <path d="M112.01,246.45l-15.26-24.59,8.99-.58,10.79,18.58-2.15.29,8.15-19.95,8.99-.58-12.22,26.37.74,11.51-7.29.47-.74-11.51Z" fill="#e2d4b2"/>
      <path d="M137.04,219.25l25.22-1.63.46,7.03-17.94,1.16.51,7.89,15.88-1.03.46,7.04-15.88,1.03.52,7.99,18.64-1.21.45,7.03-25.93,1.68-2.39-36.98Z" fill="#e2d4b2"/>
      <path d="M181.71,216.37c2.31-.15,4.39.01,6.24.48,1.85.47,3.42,1.21,4.71,2.22,1.29,1.01,2.31,2.26,3.04,3.74.73,1.48,1.16,3.18,1.29,5.09.1,1.51-.03,3.03-.39,4.57-.35,1.54-1,2.96-1.94,4.26-.94,1.31-2.23,2.39-3.85,3.25-1.63.86-3.68,1.37-6.16,1.53l-5.23.34.76,11.76-7.29.47-2.39-36.98,11.21-.72ZM184.14,234.47c1.11-.07,2.01-.32,2.73-.73.71-.42,1.26-.92,1.64-1.52s.65-1.21.79-1.84c.14-.63.2-1.21.16-1.75-.03-.4-.12-.91-.27-1.52-.16-.61-.44-1.22-.85-1.84-.41-.61-1-1.11-1.79-1.5-.78-.39-1.81-.54-3.08-.46l-5.23.34.72,11.16,5.18-.33ZM191.27,238.55l10.07,13.68-8.49.55-10.26-13.46,8.68-.76Z" fill="#e2d4b2"/>
      <path d="M204.07,245.8c.71-.75,1.51-1.16,2.42-1.22.84-.05,1.66.25,2.46.9.8.65,1.23,1.5,1.3,2.54.07,1.11-.25,2.01-.96,2.71-.71.7-1.49,1.08-2.32,1.13-.9.06-1.75-.21-2.55-.82-.8-.61-1.23-1.46-1.3-2.57-.07-1.04.25-1.93.96-2.69Z" fill="#e2d4b2"/>
      <path d="M249.22,250.65l-29.67-23.51,2.24,1.07,1.61,22.6-7.39.48-2.49-38.44.3-.02,29.07,23.45-1.65-.6-1.64-23.05,7.34-.47,2.49,38.49h-.2Z" fill="#e2d4b2"/>
      <path d="M256.48,211.53l25.22-1.63.46,7.03-17.94,1.16.51,7.89,15.88-1.03.46,7.04-15.88,1.03.52,7.99,18.64-1.21.45,7.03-25.93,1.68-2.39-36.98Z" fill="#e2d4b2"/>
      <path d="M286.79,209.82l8.54-.55,9.39,22.7-1.19-.43,5.78-17.58,4.01,9.78-9.17,23.55-17.36-37.48ZM305.33,208.62l7.24-.47,10.55,21.87-1.32-.12,5.34-22.7,7.84-.51-11.79,39.26-17.85-37.34Z" fill="#e2d4b2"/>
      <path d="M361.67,213.71c-1.46-.68-2.93-1.22-4.42-1.63-1.49-.41-2.87-.57-4.14-.49-1.57.1-2.79.5-3.66,1.2-.86.7-1.25,1.68-1.17,2.95.06.87.45,1.63,1.18,2.27.73.64,1.66,1.2,2.78,1.66,1.12.47,2.28.88,3.49,1.24,1.1.33,2.19.74,3.28,1.23,1.09.48,2.08,1.11,2.97,1.88.89.77,1.63,1.74,2.21,2.94.58,1.19.93,2.67,1.04,4.45.12,1.88-.25,3.65-1.12,5.32-.87,1.67-2.21,3.06-4.02,4.17-1.81,1.11-4.09,1.75-6.84,1.93-1.41.09-2.85.04-4.32-.15-1.48-.19-2.94-.53-4.38-1.03-1.44-.49-2.85-1.15-4.21-1.97l2.85-5.89c.91.58,1.89,1.08,2.95,1.5,1.05.42,2.11.73,3.16.93,1.05.2,2.02.27,2.89.22.87-.06,1.74-.24,2.61-.55.87-.31,1.58-.78,2.13-1.42.55-.64.79-1.5.72-2.57-.05-.74-.33-1.39-.86-1.96-.52-.57-1.21-1.08-2.07-1.53-.85-.45-1.78-.83-2.77-1.13-1.17-.36-2.37-.79-3.61-1.28-1.24-.49-2.42-1.11-3.53-1.87-1.11-.75-2.03-1.72-2.76-2.9-.73-1.18-1.16-2.66-1.27-4.43-.14-2.14.22-4.03,1.07-5.67.85-1.64,2.12-2.97,3.8-4s3.66-1.67,5.93-1.92c2.98-.19,5.42,0,7.33.59,1.9.58,3.62,1.31,5.16,2.19l-2.4,5.76Z" fill="#e2d4b2"/>
    </g>
  </g>
</svg>