<?xml version="1.0" encoding="UTF-8"?>
<svg id="heroTelevision" data-name="Hero Television" xmlns="http://www.w3.org/2000/svg" viewBox="0 0 841 664.51">
  <g id="legs">
    <path d="M159.14,540.32s-36.03,89.82-42.97,96.77c-2.98,2.98-16.09,5.75-16.8-1.13-1.13-10.99,21.65-100.81,21.65-100.81l38.13,5.17Z" stroke="#000" stroke-miterlimit="10" stroke-width="6"/>
    <path d="M198.72,543.07s-9.92,59.98-6.14,64.62c4.68,5.75,13.85,1.65,15.35,1.29,4.69-1.13,21.97-65.91,21.97-65.91h-31.18Z" stroke="#000" stroke-miterlimit="10" stroke-width="6"/>
    <path d="M665.93,653.41c3.11,2.95,17.22,8.22,21.32,0,1.78-3.55-11.05-113.02-11.05-113.02l-43.88,2.84s27.3,104.2,33.6,110.18Z" stroke="#000" stroke-miterlimit="10" stroke-width="6"/>
    <path d="M760.76,615.12c-2.24,7.36-13.94,5.12-16.16,3.72l-48.95-96.93,39.9-12.87s29.08,93.32,25.2,106.08Z" stroke="#000" stroke-miterlimit="10" stroke-width="6"/>
  </g>
  <path d="M789.59,74.65C769.22-23.67,128.44-7.35,86.27,31.25c-52.26,47.83-46.2,465.04-4.43,497.81,40.44,31.73,651.13,65.14,698.89-23.03,23.03-42.52,34.49-307.66,8.86-431.38ZM630.39,490.26c-50.02,31.26-169.96,13.64-293.87,15.35-20.43.28-165.98-7.39-195.54-14.21-9.97-2.3-19.34-6.98-28.94-23.74,0,0-14.83-37.65-15.76-86.99,0-.34.03-.44.03-.66h0c-3.65-40.95-3.81-139.95-1.77-164.41,1.54-18.49-.74-113.09,31.59-142.72,22.54-20.66,71.79-21.9,71.79-21.9,10.21-.24,57.88-2.69,76.37-3.56,14.75-.69,111.96.35,140.32,2.33,14.39,1,136.04,2.46,176.67,10.47,32.24,6.35,58.62,15.78,68.1,35.69,15.77,33.14,14.21,109,15.35,180.06,1.85,115.42-8.87,192.13-44.34,214.3Z" fill="#2d7569" stroke="#000" stroke-miterlimit="10" stroke-width="6"/>
  <path id="tvScreen" d="M126.13,72.88c22.54-20.66,71.79-21.9,71.79-21.9,10.21-.24,57.88-2.69,76.37-3.56,14.75-.69,111.96.35,140.32,2.33,14.39,1,136.04,2.46,176.67,10.46,32.24,6.35,58.62,15.78,68.1,35.69,15.77,33.14,14.21,109,15.35,180.06,1.85,115.42-8.87,192.13-44.34,214.3-50.02,31.26-169.96,13.64-293.87,15.35-20.43.28-165.98-7.39-195.54-14.21-9.97-2.3-19.34-6.98-28.94-23.74,0,0-14.83-37.65-15.76-86.99,0-.34.03-.44.03-.66h0c-3.65-40.95-3.81-139.95-1.77-164.41,1.54-18.49-.74-113.09,31.59-142.72Z" fill="none" stroke="#000" stroke-miterlimit="10" stroke-width="6"/>
  <path id="tvSide" d="M618.14,12.31s85.47,22.17,95.82,46.73c28.28,67.11,22.74,445.71-11.38,466.47-19.15,11.65-84.44,30.22-84.44,30.22l89.48-13.35,57.47-20.97,16.89-14.66,12.12-58.1,6.67-70.52,3.41-124.51-5.09-110.86-11.13-76-17.32-16.98-70.23-25.32-82.26-12.15Z"/>
  <g id="bottomKnob">
    <circle cx="700" cy="402" r="18.72" stroke="#7a7473" stroke-miterlimit="10" stroke-width="2"/>
    <rect x="696.76" y="387.32" width="6.48" height="29.36" rx="1" ry="1" transform="translate(1102 -298) rotate(90)" stroke="#7a7473" stroke-miterlimit="10" stroke-width="2"/>
  </g>
  <g id="topKnob">
    <circle cx="703" cy="352" r="18.72" stroke="#7a7473" stroke-miterlimit="10" stroke-width="2"/>
    <rect x="700" y="337.32" width="6.48" height="29.36" rx="1" ry="1" transform="translate(454.88 -394.17) rotate(45)" stroke="#7a7473" stroke-miterlimit="10" stroke-width="2"/>
  </g>
  <g id="grill">
    <g>
      <rect x="684.28" y="261" width="37.44" height="5.01" rx="1.9" ry="1.9"/>
      <rect x="684.28" y="254" width="37.44" height="5.01" rx="1.9" ry="1.9"/>
      <rect x="684.28" y="247" width="37.44" height="5.01" rx="1.9" ry="1.9"/>
      <rect x="684.28" y="240" width="37.44" height="5.01" rx="1.9" ry="1.9"/>
      <rect x="684.28" y="233" width="37.44" height="5.01" rx="1.9" ry="1.9"/>
      <rect x="684.28" y="226" width="37.44" height="5.01" rx="1.9" ry="1.9"/>
      <rect x="684.28" y="219" width="37.44" height="5.01" rx="1.9" ry="1.9"/>
    </g>
    <g>
      <rect x="684.28" y="212" width="37.44" height="5.01" rx="1.9" ry="1.9"/>
      <rect x="684.28" y="205" width="37.44" height="5.01" rx="1.9" ry="1.9"/>
      <rect x="684.28" y="198" width="37.44" height="5.01" rx="1.9" ry="1.9"/>
      <rect x="684.28" y="191" width="37.44" height="5.01" rx="1.9" ry="1.9"/>
      <rect x="684.28" y="184" width="37.44" height="5.01" rx="1.9" ry="1.9"/>
      <rect x="684.28" y="177" width="37.44" height="5.01" rx="1.9" ry="1.9"/>
      <rect x="684.28" y="170" width="37.44" height="5.01" rx="1.9" ry="1.9"/>
    </g>
  </g>
</svg>